<svg width="48" height="22" viewBox="0 0 48 22" fill="none" xmlns="http://www.w3.org/2000/svg">
<path d="M37.2 0.240005C34.32 0.240005 31.6 1.36 29.66 3.3L24 8.32001L20.96 11H20.98L15.6 15.78C14.32 17.06 12.62 17.76 10.8 17.76C7.06 17.76 4.02 14.74 4.02 11C4.02 7.26001 7.06 4.24001 10.8 4.24001C12.62 4.24001 14.32 4.94 15.68 6.3L17.94 8.3L20.96 5.62001L18.44 3.40001C16.4 1.36001 13.68 0.240005 10.8 0.240005C4.84 0.240005 0 5.08001 0 11C0 16.92 4.84 21.76 10.8 21.76C13.68 21.76 16.4 20.64 18.34 18.7L24 13.7L24.02 13.72L27.04 11H27.02L32.4 6.22001C33.68 4.94001 35.38 4.24001 37.2 4.24001C40.94 4.24001 43.98 7.26001 43.98 11C43.98 14.74 40.94 17.76 37.2 17.76C35.4 17.76 33.68 17.06 32.32 15.7L30.04 13.68L27.02 16.36L29.56 18.6C31.6 20.62 34.3 21.74 37.2 21.74C43.16 21.74 48 16.92 48 10.98C48 5.04001 43.16 0.240005 37.2 0.240005Z" fill="#346872"/>
</svg>
